# xmcd
#
# Track frame offsets:
#	150
#	17132
#	32385
#	50330
#	65605
#	92297
#	107062
#	123830
#	136020
#	150427
#	166260
#	191327
#	205015
#	221577
#
# Disc length: 3183
#
# Revision: 3
# Processed by: cddbd v1.5.1PL0 Copyright (c) Steve Scherf et al.
# Submitted via: CDValet v3.31 - Copyright (c) 1997 Greg Leichner
# Normalized: r1:DSETVAR1;r2:TSWAP
#
DISCID=a70c6d0e
DTITLE=Various Artist - Deep Soul - Volume Three
DYEAR=1900
DGENRE=
TTITLE0=Moments - Love On A Two Way Street
TTITLE1=Delfonics - Didn't I (Blow Your Mind This Time)
TTITLE2=Dramatics - Watcha See Is Whatcha Get
TTITLE3=Joe Simon - Drowning In The Sea Of Love
TTITLE4=New Birth - It's Been A Long Time
TTITLE5=Millie Jackson - Hurts So Good
TTITLE6=Bobby Womack - That's The Way I Feel About Cha'
TTITLE7=Chairmen Of The Board - Give Me Just A Little More Time
TTITLE8=Soul Generation - Body And Soul
TTITLE9=Honey Cone - One Monkey Don't Stop No Show
TTITLE10=Isley Brothers - Hello, It's Me
TTITLE11=Intruders - I'll Always Love My Mama
TTITLE12=Manhattans - There's No Me Without You
TTITLE13=Escorts - Look Over Your Shoulder
EXTD=
EXTT0=
EXTT1=
EXTT2=
EXTT3=
EXTT4=
EXTT5=
EXTT6=
EXTT7=
EXTT8=
EXTT9=
EXTT10=
EXTT11=
EXTT12=
EXTT13=
PLAYORDER=
